# xmcd
# Track frame offsets:
# 150
# 17427
# 39267
# 56287
# 75057
# 89571
# 105135
# 121405
# 138016
# 156386
# 172446
# 191529
# 206043
# 221576
# 241206
# 259043
# 275397
# 300953
#
# Disc length: 4239 seconds
# Revision: 0
# Processed by: cddbd v1.5.2PL0 Copyright (c) Steve Scherf et al.
# Submitted via: VisiTrax 2.10.2.252 - For more info visit www.synapsa.com
#
DISCID=e1108d12
DTITLE=Kelly Rowland - Simply Deep
DYEAR=2007
DGENRE=country
TTITLE0=Stole
TTITLE1=Dilemma
TTITLE2=Haven´t told you
TTITLE3=Can´t nobody
TTITLE4=Love hate
TTITLE5=Simply deep
TTITLE6=Strange places
TTITLE7=Obsession
TTITLE8=Heaven
TTITLE9=Past 12
TTITLE10=Everytime you walk out the door
TTITLE11=Train on the tracks
TTITLE12=Beyond Imagination
TTITLE13=Make u wanna stay
TTITLE14=Stole
TTITLE15=Angel
TTITLE16=10 Commandments
TTITLE17=No coincidence
EXTD=
EXTT0=
EXTT1=
EXTT2=
EXTT3=
EXTT4=
EXTT5=
EXTT6=
EXTT7=
EXTT8=
EXTT9=
EXTT10=
EXTT11=
EXTT12=
EXTT13=
EXTT14=
EXTT15=
EXTT16=
EXTT17=
PLAYORDER=
